<?xml version="1.0" encoding="UTF-8" standalone="no"?>
<!-- Created with Inkscape (http://www.inkscape.org/) -->

<svg
   width="512"
   height="512"
   viewBox="0 0 512 512"
   version="1.1"
   id="svg1"
   inkscape:version="1.4 (e7c3feb1, 2024-10-09)"
   sodipodi:docname="OpenCHAMI Logo.svg"
   xmlns:inkscape="http://www.inkscape.org/namespaces/inkscape"
   xmlns:sodipodi="http://sodipodi.sourceforge.net/DTD/sodipodi-0.dtd"
   xmlns="http://www.w3.org/2000/svg"
   xmlns:svg="http://www.w3.org/2000/svg">
  <sodipodi:namedview
     id="namedview1"
     pagecolor="#ffffff"
     bordercolor="#000000"
     borderopacity="0.25"
     inkscape:showpageshadow="2"
     inkscape:pageopacity="0.0"
     inkscape:pagecheckerboard="0"
     inkscape:deskcolor="#d1d1d1"
     inkscape:document-units="px"
     inkscape:zoom="1.625"
     inkscape:cx="256"
     inkscape:cy="299.07692"
     inkscape:window-width="2560"
     inkscape:window-height="1387"
     inkscape:window-x="0"
     inkscape:window-y="526"
     inkscape:window-maximized="0"
     inkscape:current-layer="layer1" />
  <defs
     id="defs1">
    <clipPath
       clipPathUnits="userSpaceOnUse"
       id="clipPath25">
      <path
         d="M 0,117.401 H 160.021 V 0 H 0 Z"
         transform="translate(-81.4399,-29.976201)"
         id="path25" />
    </clipPath>
    <clipPath
       clipPathUnits="userSpaceOnUse"
       id="clipPath43">
      <path
         d="M 0,117.401 H 160.021 V 0 H 0 Z"
         transform="translate(-86.3434,-27.991498)"
         id="path43" />
    </clipPath>
    <clipPath
       clipPathUnits="userSpaceOnUse"
       id="clipPath45">
      <path
         d="M 0,117.401 H 160.021 V 0 H 0 Z"
         transform="translate(-83.686705,-31.025998)"
         id="path45" />
    </clipPath>
  </defs>
  <g
     inkscape:label="Layer 1"
     inkscape:groupmode="layer"
     id="layer1">
    <path
       id="path24"
       d="M 0,0 H -0.558 V 3.319 L -3.226,4.681 -2.973,5.179 0,3.662 Z"
       style="fill:#100f0d;fill-opacity:1;fill-rule:nonzero;stroke:none"
       transform="matrix(30.920718,0,0,-30.920718,279.08801,360.3253)"
       clip-path="url(#clipPath25)" />
    <path
       id="path42"
       d="m 0,0 -3.79,-2.19 c -0.44,-0.25 -0.93,-0.38 -1.42,-0.38 -0.49,0 -0.97,0.13 -1.41,0.38 L -11,0.34 c -0.87,0.5 -1.41,1.44 -1.41,2.45 v 5.06 c 0,1 0.54,1.94 1.41,2.44 l 4.35,2.52 c 0.9,0.52 2.01,0.5 2.9,-0.05 L -0.07,10.5 -2,8.65 -5.1,10.57 H -5.35 L -9.71,8.06 -9.83,7.85 V 2.79 c 0,-0.09 0.05,-0.17 0.12,-0.21 l 4.38,-2.53 h 0.24 L -1.71,2 Z"
       style="display:inline;fill:#100f0d;fill-opacity:1;fill-rule:nonzero;stroke:none"
       transform="matrix(30.920718,0,0,-30.920718,430.70799,421.69372)"
       clip-path="url(#clipPath43)" />
    <path
       id="path44"
       d="M 0,0 -2.572,-1.481 -5.821,0.39 v 3.759 l 3.257,1.88 2.27,-1.412 L -0.71,4.219 -2.581,5.379 -4.963,4.002 -5.267,3.829 v -3.11 l 2.46,-1.421 0.235,-0.138 0.329,0.19 1.87,1.083 z"
       style="display:inline;fill:#100f0d;fill-opacity:1;fill-rule:nonzero;stroke:none"
       transform="matrix(30.920718,0,0,-30.920718,348.56131,327.86434)"
       clip-path="url(#clipPath45)" />
  </g>
</svg>
